<svg width="18" height="16" viewBox="0 0 18 16" fill="none" xmlns="http://www.w3.org/2000/svg">
    <path d="M8.99999 15.4792L8.14582 14.7083C6.6736 13.3611 5.45832 12.1979 4.49999 11.2188C3.54166 10.2396 2.77777 9.36459 2.20832 8.59376C1.63888 7.82293 1.23957 7.12501 1.01041 6.50001C0.78124 5.87501 0.666656 5.24307 0.666656 4.60418C0.666656 3.35418 1.0868 2.30904 1.92707 1.46876C2.76735 0.628482 3.80555 0.208344 5.04166 0.208344C5.83332 0.208344 6.56596 0.395843 7.23957 0.770843C7.91318 1.14584 8.49999 1.68751 8.99999 2.39584C9.58332 1.64584 10.2014 1.09376 10.8542 0.739593C11.5069 0.385427 12.2083 0.208344 12.9583 0.208344C14.1944 0.208344 15.2326 0.628482 16.0729 1.46876C16.9132 2.30904 17.3333 3.35418 17.3333 4.60418C17.3333 5.24307 17.2187 5.87501 16.9896 6.50001C16.7604 7.12501 16.3611 7.82293 15.7917 8.59376C15.2222 9.36459 14.4583 10.2396 13.5 11.2188C12.5417 12.1979 11.3264 13.3611 9.85416 14.7083L8.99999 15.4792Z" fill="white" fill-opacity="0.6" />
</svg>